<!--?xml version="1.0" encoding="utf-8"??-->
<!-- Generator: Adobe Illustrator 26.0.2, SVG Export Plug-In . SVG Version: 6.00 Build 0)  -->
<svg version="1.1" id="Camada_1" xmlns="http://www.w3.org/2000/svg" xmlns:xlink="http://www.w3.org/1999/xlink" x="0px" y="0px" viewBox="0 0 141 23.2" style="enable-background:new 0 0 141 23.2;" xml:space="preserve">
<style type="text/css">
	.st0{fill:#FFFFFF;}
	.st1{fill:url(#SVGID_1_);}
	.st2{fill:url(#SVGID_00000131358954619628710670000013201970871414651321_);}
	.st3{fill:url(#SVGID_00000072983562693574773430000010059928661201105302_);}
	.st4{fill:url(#SVGID_00000020385894861335024510000011376054912705308312_);}
	.st5{fill:url(#SVGID_00000011740081463587179680000001928957325891885712_);}
	.st6{fill:url(#SVGID_00000080203424305463817720000016449253578028867004_);}
	.st7{fill:url(#SVGID_00000071553514923363927810000005261904693026485138_);}
	.st8{fill:url(#SVGID_00000016769655671471366750000012196307064942202263_);}
</style>
<g id="Camada_2_00000158732527364494063490000006167239289785523841_">
	<g id="Layer_1">
		<path class="st0" d="M2.1,13.9c0-5.6,6-13.2,14.4-8.6c3.1,1.7,5.3-1.5,3-3C17.4,0.8,14.8,0,12.3,0C5.5,0,0,5.2,0,11.7
			c0,4.1,2.3,8,5.9,10C3.6,19.7,2.2,16.9,2.1,13.9z"></path>

			<linearGradient id="SVGID_1_" gradientUnits="userSpaceOnUse" x1="2.4161" y1="17.4686" x2="15.9961" y2="7.8587" gradientTransform="matrix(1 0 0 -1 0 26)">
			<stop offset="0" style="stop-color:#FFFFFF"></stop>
			<stop offset="0.14" style="stop-color:#FFFFFF"></stop>
			<stop offset="0.24" style="stop-color:#FFFFFF"></stop>
			<stop offset="0.48" style="stop-color:#FFFFFF"></stop>
			<stop offset="0.7" style="stop-color:#FFFFFF"></stop>
			<stop offset="0.88" style="stop-color:#FFFFFF"></stop>
			<stop offset="1" style="stop-color:#FFFFFF"></stop>
		</linearGradient>
		<path class="st1" d="M4,11.2c-0.1,5.6,5.3,9.8,11.4,7.1c3.3-1.5,5.2,1.9,2.8,3.3c-2.2,1.3-4.8,1.9-7.4,1.7C4.1,22.7,1,18,1.4,11.6
			c0.3-4.2,4.9-7.9,9.7-7.7C7.2,4.2,4.2,7.3,4,11.2z"></path>
		<circle class="st0" cx="18.1" cy="3.8" r="2.6"></circle>
		<circle class="st0" cx="18.1" cy="19.3" r="2.6"></circle>

			<linearGradient id="SVGID_00000107586189657524210550000005433263643104920242_" gradientUnits="userSpaceOnUse" x1="2.1" y1="14.4851" x2="22.56" y2="14.4851" gradientTransform="matrix(1 0 0 -1 0 26)">
			<stop offset="0" style="stop-color:#FFFFFF"></stop>
			<stop offset="0.18" style="stop-color:#FFFFFF"></stop>
			<stop offset="0.24" style="stop-color:#FFFFFF"></stop>
			<stop offset="0.41" style="stop-color:#FFFFFF"></stop>
			<stop offset="0.55" style="stop-color:#FFFFFF"></stop>
			<stop offset="0.67" style="stop-color:#FFFFFF"></stop>
			<stop offset="0.75" style="stop-color:#FFFFFF"></stop>
		</linearGradient>
		<path style="fill:url(#SVGID_00000107586189657524210550000005433263643104920242_);" d="M25.4,5.5c-1.4,0-2.7,0.5-3.8,1.3
			c-0.2,0.1-0.3,0.2-0.5,0.3c-0.1,0.1-0.2,0.2-0.4,0.3c-0.7,0.6-1.7,2.1-2.7,2.1c-0.8,0-1.5-0.3-2.1-0.9c-0.1-0.1-0.3-0.2-0.4-0.4
			C13.7,6.9,11,7.2,9.5,9.1s-1.1,4.7,0.8,6.1c1.6,1.2,3.8,1.2,5.4,0c0.1-0.1,0.3-0.2,0.4-0.4c0.5-0.6,1.3-0.9,2.1-0.9
			c1,0,2,1,2.7,1.6c0.1,0.1,0.2,0.2,0.4,0.3l0.2,0.2c2.5,2.2,6.3,1.9,8.5-0.6c2.2-2.5,1.9-6.3-0.6-8.5C28.2,6.1,26.9,5.5,25.4,5.5
			L25.4,5.5z"></path>

			<linearGradient id="SVGID_00000075883420545259301410000001674544668947369871_" gradientUnits="userSpaceOnUse" x1="63.8698" y1="-13.95" x2="63.8698" y2="26.42" gradientTransform="matrix(1 0 0 -1 0 26)">
			<stop offset="0" style="stop-color:#FFFFFF"></stop>
			<stop offset="0.16" style="stop-color:#FFFFFF"></stop>
			<stop offset="0.22" style="stop-color:#FFFFFF"></stop>
			<stop offset="0.26" style="stop-color:#FFFFFF"></stop>
			<stop offset="0.29" style="stop-color:#FFFFFF"></stop>
			<stop offset="0.37" style="stop-color:#FFFFFF"></stop>
			<stop offset="0.57" style="stop-color:#FFFFFF"></stop>
			<stop offset="0.75" style="stop-color:#FFFFFF"></stop>
			<stop offset="0.9" style="stop-color:#FFFFFF"></stop>
			<stop offset="1" style="stop-color:#FFFFFF"></stop>
		</linearGradient>
		<path style="fill:url(#SVGID_00000075883420545259301410000001674544668947369871_);" d="M63.9,2.6c-2.4,0-4.7,0.9-6.4,2.6
			c-1.7,1.7-2.7,4-2.6,6.4c0,2.4,0.9,4.7,2.6,6.3c3.6,3.5,9.3,3.5,12.8,0c1.7-1.7,2.7-3.9,2.6-6.3c0-4.9-3.9-9-8.9-9
			C64,2.6,63.9,2.6,63.9,2.6L63.9,2.6z M67.8,15.6c-2.2,2.1-5.7,2.1-7.8,0c-1.1-1.1-1.6-2.5-1.6-4c0-1.5,0.5-3,1.6-4.1
			c2.1-2.2,5.6-2.2,7.8,0c0,0,0,0,0,0c1.1,1.1,1.6,2.6,1.6,4.1C69.4,13.1,68.9,14.6,67.8,15.6L67.8,15.6z"></path>

			<linearGradient id="SVGID_00000129194649298723999050000016924165241725189527_" gradientUnits="userSpaceOnUse" x1="83.5636" y1="-13.95" x2="83.5636" y2="26.42" gradientTransform="matrix(1 0 0 -1 0 26)">
			<stop offset="0" style="stop-color:#FFFFFF"></stop>
			<stop offset="0.16" style="stop-color:#FFFFFF"></stop>
			<stop offset="0.22" style="stop-color:#FFFFFF"></stop>
			<stop offset="0.26" style="stop-color:#FFFFFF"></stop>
			<stop offset="0.29" style="stop-color:#FFFFFF"></stop>
			<stop offset="0.37" style="stop-color:#FFFFFF"></stop>
			<stop offset="0.57" style="stop-color:#FFFFFF"></stop>
			<stop offset="0.75" style="stop-color:#FFFFFF"></stop>
			<stop offset="0.9" style="stop-color:#FFFFFF"></stop>
			<stop offset="1" style="stop-color:#FFFFFF"></stop>
		</linearGradient>
		<path style="fill:url(#SVGID_00000129194649298723999050000016924165241725189527_);" d="M88.9,5.4C87,3.7,84.5,2.9,82,3h-6.3
			v17.1H82c2.5,0.1,4.9-0.7,6.8-2.4c1.7-1.6,2.7-3.9,2.6-6.2C91.5,9.2,90.6,7,88.9,5.4z M86.3,15.5c-1.2,1-2.8,1.5-4.3,1.5h-2.8V6.2
			H82c1.6-0.1,3.1,0.4,4.3,1.5c1.1,1,1.7,2.5,1.6,4C88,13.1,87.4,14.5,86.3,15.5z"></path>

			<linearGradient id="SVGID_00000061438282733054189520000017443649737205606299_" gradientUnits="userSpaceOnUse" x1="101" y1="-13.95" x2="101" y2="26.42" gradientTransform="matrix(1 0 0 -1 0 26)">
			<stop offset="0" style="stop-color:#FFFFFF"></stop>
			<stop offset="0.16" style="stop-color:#FFFFFF"></stop>
			<stop offset="0.22" style="stop-color:#FFFFFF"></stop>
			<stop offset="0.26" style="stop-color:#FFFFFF"></stop>
			<stop offset="0.29" style="stop-color:#FFFFFF"></stop>
			<stop offset="0.37" style="stop-color:#FFFFFF"></stop>
			<stop offset="0.57" style="stop-color:#FFFFFF"></stop>
			<stop offset="0.75" style="stop-color:#FFFFFF"></stop>
			<stop offset="0.9" style="stop-color:#FFFFFF"></stop>
			<stop offset="1" style="stop-color:#FFFFFF"></stop>
		</linearGradient>
		<path style="fill:url(#SVGID_00000061438282733054189520000017443649737205606299_);" d="M99.4,3L92,20.1h3.8l1.5-3.6h7.6l1.5,3.6
			h3.7L102.6,3H99.4z M98.5,13.4l2.5-6.1l2.5,6.1H98.5z"></path>

			<linearGradient id="SVGID_00000059280212555394140370000017837879387228855952_" gradientUnits="userSpaceOnUse" x1="116.465" y1="-13.95" x2="116.465" y2="26.42" gradientTransform="matrix(1 0 0 -1 0 26)">
			<stop offset="0" style="stop-color:#FFFFFF"></stop>
			<stop offset="0.16" style="stop-color:#FFFFFF"></stop>
			<stop offset="0.22" style="stop-color:#FFFFFF"></stop>
			<stop offset="0.26" style="stop-color:#FFFFFF"></stop>
			<stop offset="0.29" style="stop-color:#FFFFFF"></stop>
			<stop offset="0.37" style="stop-color:#FFFFFF"></stop>
			<stop offset="0.57" style="stop-color:#FFFFFF"></stop>
			<stop offset="0.75" style="stop-color:#FFFFFF"></stop>
			<stop offset="0.9" style="stop-color:#FFFFFF"></stop>
			<stop offset="1" style="stop-color:#FFFFFF"></stop>
		</linearGradient>
		<polygon style="fill:url(#SVGID_00000059280212555394140370000017837879387228855952_);" points="123.9,3 109,3 109,6.2
			114.7,6.2 114.7,20.1 118.2,20.1 118.2,6.2 123.9,6.2 		"></polygon>

			<linearGradient id="SVGID_00000109005414636386058180000002547834601337739167_" gradientUnits="userSpaceOnUse" x1="131.94" y1="-13.95" x2="131.94" y2="26.42" gradientTransform="matrix(1 0 0 -1 0 26)">
			<stop offset="0" style="stop-color:#FFFFFF"></stop>
			<stop offset="0.16" style="stop-color:#FFFFFF"></stop>
			<stop offset="0.22" style="stop-color:#FFFFFF"></stop>
			<stop offset="0.26" style="stop-color:#FFFFFF"></stop>
			<stop offset="0.29" style="stop-color:#FFFFFF"></stop>
			<stop offset="0.37" style="stop-color:#FFFFFF"></stop>
			<stop offset="0.57" style="stop-color:#FFFFFF"></stop>
			<stop offset="0.75" style="stop-color:#FFFFFF"></stop>
			<stop offset="0.9" style="stop-color:#FFFFFF"></stop>
			<stop offset="1" style="stop-color:#FFFFFF"></stop>
		</linearGradient>
		<path style="fill:url(#SVGID_00000109005414636386058180000002547834601337739167_);" d="M133.6,3h-3.2l-7.4,17.1h3.8l1.5-3.6h7.6
			l1.5,3.6h3.8L133.6,3z M129.4,13.3l2.5-6.1l2.5,6.1H129.4z"></path>

			<linearGradient id="SVGID_00000108301853876623168010000017765992578337324727_" gradientUnits="userSpaceOnUse" x1="44.0332" y1="-13.95" x2="44.0332" y2="26.42" gradientTransform="matrix(1 0 0 -1 0 26)">
			<stop offset="0" style="stop-color:#FFFFFF"></stop>
			<stop offset="0.16" style="stop-color:#FFFFFF"></stop>
			<stop offset="0.22" style="stop-color:#FFFFFF"></stop>
			<stop offset="0.26" style="stop-color:#FFFFFF"></stop>
			<stop offset="0.29" style="stop-color:#FFFFFF"></stop>
			<stop offset="0.37" style="stop-color:#FFFFFF"></stop>
			<stop offset="0.57" style="stop-color:#FFFFFF"></stop>
			<stop offset="0.75" style="stop-color:#FFFFFF"></stop>
			<stop offset="0.9" style="stop-color:#FFFFFF"></stop>
			<stop offset="1" style="stop-color:#FFFFFF"></stop>
		</linearGradient>
		<path style="fill:url(#SVGID_00000108301853876623168010000017765992578337324727_);" d="M44.3,5.9c1.2,0,2.3,0.4,3.2,1.1
			c0.6,0.5,0.8,1.2,1.4,1.8c0.7,0.5,1.6,0.7,2.4,0.6c0.5-0.1,0.9-0.3,1.3-0.6c-0.4-1.7-1.4-3.3-2.9-4.3C46.2,1.8,41.2,2.1,38,5.2
			c-1.7,1.7-2.7,4-2.6,6.3C35.3,14,36.3,16.3,38,18c3.2,3.1,8.3,3.5,11.9,0.8c1.3-1,2.2-2.4,2.7-4c-0.4-0.2-0.8-0.3-1.2-0.4
			c-1,0-2.1,0.3-2.9,0.9c-0.3,0.3-0.5,0.6-0.8,0.9c-0.9,0.7-2.1,1.1-3.2,1.1c-1.5,0-2.9-0.6-3.9-1.6c-1.1-1.1-1.6-2.6-1.6-4.1
			c0-1.5,0.5-2.9,1.6-4C41.5,6.5,42.9,5.9,44.3,5.9z"></path>
	</g>
</g>
</svg>