<?xml version="1.0" encoding="UTF-8" standalone="no"?>
<svg
   viewBox="0 0 31.927696 31.927696"
   version="1.1"
   id="svg102"
   sodipodi:docname="codata-logo.svg"
   width="29.932215"
   height="29.932215"
   inkscape:version="1.2.2 (b0a8486541, 2022-12-01, custom)"
   xmlns:inkscape="http://www.inkscape.org/namespaces/inkscape"
   xmlns:sodipodi="http://sodipodi.sourceforge.net/DTD/sodipodi-0.dtd"
   xmlns:xlink="http://www.w3.org/1999/xlink"
   xmlns="http://www.w3.org/2000/svg"
   xmlns:svg="http://www.w3.org/2000/svg">
  <sodipodi:namedview
     id="namedview104"
     pagecolor="#ffffff"
     bordercolor="#000000"
     borderopacity="0.25"
     inkscape:showpageshadow="2"
     inkscape:pageopacity="0.0"
     inkscape:pagecheckerboard="0"
     inkscape:deskcolor="#d1d1d1"
     showgrid="false"
     showguides="true"
     inkscape:zoom="22.627417"
     inkscape:cx="11.534679"
     inkscape:cy="15.180699"
     inkscape:window-width="1846"
     inkscape:window-height="1016"
     inkscape:window-x="74"
     inkscape:window-y="27"
     inkscape:window-maximized="1"
     inkscape:current-layer="svg102" />
  <defs
     id="defs76">
    <style
       id="style18">.cls-1{fill:#0582f6;}.cls-2{fill:url(#linear-gradient);}.cls-3{fill:url(#linear-gradient-2);}.cls-4,.cls-5,.cls-6,.cls-7,.cls-8,.cls-9{isolation:isolate;}.cls-4{fill:url(#linear-gradient-3);}.cls-5{fill:url(#linear-gradient-4);}.cls-6{fill:url(#linear-gradient-5);}.cls-7{fill:url(#linear-gradient-6);}.cls-8{fill:url(#linear-gradient-7);}.cls-9{fill:url(#linear-gradient-8);}</style>
    <linearGradient
       id="linear-gradient"
       x1="2.4100001"
       y1="8.5299997"
       x2="15.99"
       y2="18.139999"
       gradientUnits="userSpaceOnUse">
      <stop
         offset="0"
         stop-color="#022454"
         id="stop20" />
      <stop
         offset="0.14"
         stop-color="#033775"
         id="stop22" />
      <stop
         offset="0.24"
         stop-color="#03438a"
         id="stop24" />
      <stop
         offset="0.48"
         stop-color="#045eb8"
         id="stop26" />
      <stop
         offset="0.7"
         stop-color="#0572da"
         id="stop28" />
      <stop
         offset="0.88"
         stop-color="#057eef"
         id="stop30" />
      <stop
         offset="1"
         stop-color="#0582f6"
         id="stop32" />
    </linearGradient>
    <linearGradient
       id="linear-gradient-2"
       x1="2.0999999"
       y1="11.52"
       x2="22.559999"
       y2="11.52"
       gradientUnits="userSpaceOnUse">
      <stop
         offset="0"
         stop-color="#022454"
         id="stop35" />
      <stop
         offset="0.18"
         stop-color="#033775"
         id="stop37" />
      <stop
         offset="0.24"
         stop-color="#03438a"
         id="stop39" />
      <stop
         offset="0.41"
         stop-color="#045eb8"
         id="stop41" />
      <stop
         offset="0.55"
         stop-color="#0572da"
         id="stop43" />
      <stop
         offset="0.67"
         stop-color="#057eef"
         id="stop45" />
      <stop
         offset="0.75"
         stop-color="#0582f6"
         id="stop47" />
    </linearGradient>
    <linearGradient
       id="linear-gradient-3"
       x1="63.869999"
       y1="39.950001"
       x2="63.869999"
       y2="-0.41999999"
       gradientUnits="userSpaceOnUse">
      <stop
         offset="0"
         stop-color="#022454"
         id="stop50" />
      <stop
         offset="0.16"
         stop-color="#022556"
         id="stop52" />
      <stop
         offset="0.22"
         stop-color="#02295d"
         id="stop54" />
      <stop
         offset="0.26"
         stop-color="#033068"
         id="stop56" />
      <stop
         offset="0.29"
         stop-color="#033775"
         id="stop58" />
      <stop
         offset="0.37"
         stop-color="#03438a"
         id="stop60" />
      <stop
         offset="0.57"
         stop-color="#045eb8"
         id="stop62" />
      <stop
         offset="0.75"
         stop-color="#0572da"
         id="stop64" />
      <stop
         offset="0.9"
         stop-color="#057eef"
         id="stop66" />
      <stop
         offset="1"
         stop-color="#0582f6"
         id="stop68" />
    </linearGradient>
    <linearGradient
       id="linear-gradient-4"
       x1="83.580002"
       y1="39.950001"
       x2="83.580002"
       y2="-0.41999999"
       xlink:href="#linear-gradient-3" />
    <linearGradient
       id="linear-gradient-5"
       x1="101"
       y1="39.950001"
       x2="101"
       y2="-0.41999999"
       xlink:href="#linear-gradient-3" />
    <linearGradient
       id="linear-gradient-6"
       x1="116.46"
       y1="39.950001"
       x2="116.46"
       y2="-0.41999999"
       xlink:href="#linear-gradient-3" />
    <linearGradient
       id="linear-gradient-7"
       x1="131.92999"
       y1="39.950001"
       x2="131.92999"
       y2="-0.41999999"
       xlink:href="#linear-gradient-3" />
    <linearGradient
       id="linear-gradient-8"
       x1="44.009998"
       y1="39.950001"
       x2="44.009998"
       y2="-0.41999999"
       xlink:href="#linear-gradient-3" />
  </defs>
  <g
     id="Layer_1"
     data-name="Layer 1"
     inkscape:label="Layer_1"
     style="image-rendering:auto"
     transform="matrix(1.0178054,0,0,1.0178054,0.00486554,3.7900463)">
    <path
       class="cls-1"
       d="m 2.08,13.88 c 0,-5.58 6,-13.17 14.38,-8.62 3.14,1.7 5.28,-1.47 3,-3 A 12.67,12.67 0 0 0 12.28,0 C 5.5,0 0,5.23 0,11.69 a 11.58,11.58 0 0 0 5.88,10 10.62,10.62 0 0 1 -3.8,-7.81 z"
       id="path78" />
    <path
       class="cls-2"
       d="m 4,11.19 c -0.11,5.63 5.34,9.8 11.41,7.08 3.26,-1.46 5.16,1.87 2.79,3.26 a 12.74,12.74 0 0 1 -7.35,1.69 C 4.13,22.72 1,18 1.44,11.59 1.75,7.38 6.38,3.68 11.1,3.86 A 7.69,7.69 0 0 0 4,11.19 Z"
       id="path80"
       style="fill:url(#linear-gradient)" />
    <circle
       class="cls-1"
       cx="18.15"
       cy="3.8499999"
       r="2.5699999"
       id="circle82" />
    <circle
       class="cls-1"
       cx="18.15"
       cy="19.309999"
       r="2.5699999"
       id="circle84"
       style="display:none" />
    <path
       class="cls-3"
       d="M 25.43,5.5 A 6,6 0 0 0 21.64,6.84 4.73,4.73 0 0 0 21.18,7.16 2.67,2.67 0 0 1 20.82,7.47 C 20.08,8.06 19.14,9.6 18.12,9.6 a 2.82,2.82 0 0 1 -2.07,-0.91 4.59,4.59 0 0 1 -0.41,-0.36 4.37,4.37 0 1 0 0,6.91 4.59,4.59 0 0 1 0.41,-0.36 2.82,2.82 0 0 1 2.07,-0.88 c 1,0 2,1 2.7,1.56 a 3.65,3.65 0 0 1 0.36,0.31 l 0.25,0.19 a 6,6 0 1 0 4,-10.53 z"
       id="path86"
       style="fill:url(#linear-gradient-2)" />
  </g>
</svg>
